<?xml version="1.0" encoding="UTF-8"?>
<svg id="Capa_2" data-name="Capa 2" xmlns="http://www.w3.org/2000/svg" viewBox="0 0 60 22.95">
  <defs>
    <style>
      .cls-1 {
        fill: #e00034;
      }
    </style>
  </defs>
  <g id="Background">
    <g>
      <path class="cls-1" d="M3.77,22.77c-.17,.09-.52,.17-.97,.17-1.03,0-1.81-.65-1.81-1.85s.78-1.91,1.91-1.91c.45,0,.75,.1,.87,.16l-.12,.39c-.17-.09-.43-.15-.73-.15-.86,0-1.43,.55-1.43,1.5,0,.89,.51,1.46,1.4,1.46,.29,0,.59-.06,.78-.15l.09,.38h0Z"/>
      <rect class="cls-1" x="4.37" y="19.24" width=".48" height="3.64"/>
      <path class="cls-1" d="M6.15,19.24v2.16c0,.81,.37,1.15,.85,1.15,.54,0,.89-.36,.89-1.15v-2.16h.48v2.13c0,1.12-.59,1.57-1.39,1.57s-1.31-.42-1.31-1.55v-2.15h.47Z"/>
      <path class="cls-1" d="M9.66,22.51c.12,.01,.29,.02,.48,.02,1.01,0,1.56-.56,1.56-1.55,0-.86-.49-1.41-1.49-1.41-.25,0-.43,.02-.55,.05v2.88h0Zm-.47-3.21c.29-.05,.63-.08,1.01-.08,.68,0,1.16,.16,1.49,.45,.33,.3,.52,.72,.52,1.31s-.19,1.08-.53,1.41c-.35,.34-.91,.52-1.63,.52-.34,0-.62-.01-.86-.04v-3.57Z"/>
      <path class="cls-1" d="M14.53,21.37l-.37-1.05c-.08-.24-.13-.45-.19-.67h-.01c-.05,.21-.11,.44-.19,.66l-.36,1.05h1.12Zm-1.21,.37l-.38,1.15h-.49l1.25-3.64h.57l1.25,3.64h-.51l-.39-1.15h-1.29Z"/>
      <path class="cls-1" d="M16.53,22.51c.12,.01,.29,.02,.48,.02,1.02,0,1.56-.56,1.56-1.55,0-.86-.48-1.41-1.49-1.41-.25,0-.43,.02-.55,.05v2.88h0Zm-.47-3.21c.29-.05,.63-.08,1.01-.08,.68,0,1.17,.16,1.49,.45,.33,.3,.52,.72,.52,1.31s-.19,1.08-.53,1.41c-.35,.34-.91,.52-1.63,.52-.34,0-.62-.01-.86-.04v-3.57Z"/>
      <path class="cls-1" d="M21.31,22.51c.12,.01,.29,.02,.48,.02,1.01,0,1.56-.56,1.56-1.55,0-.86-.49-1.41-1.49-1.41-.25,0-.43,.02-.55,.05v2.88h0Zm-.47-3.21c.29-.05,.63-.08,1.01-.08,.68,0,1.17,.16,1.49,.45,.33,.3,.52,.72,.52,1.31s-.19,1.08-.53,1.41c-.35,.34-.91,.52-1.63,.52-.34,0-.62-.01-.86-.04v-3.57Z"/>
      <polygon class="cls-1" points="26.34 21.17 24.93 21.17 24.93 22.49 26.51 22.49 26.51 22.88 24.45 22.88 24.45 19.24 26.43 19.24 26.43 19.64 24.93 19.64 24.93 20.79 26.34 20.79 26.34 21.17"/>
      <path class="cls-1" d="M31.37,21.29c-.03-.51-.06-1.12-.06-1.57h-.01c-.13,.42-.28,.88-.46,1.38l-.65,1.77h-.36l-.6-1.73c-.17-.52-.31-.98-.42-1.41h-.01c-.01,.45-.04,1.06-.07,1.61l-.1,1.56h-.45l.25-3.64h.61l.63,1.76c.15,.45,.27,.85,.37,1.23h.01c.1-.37,.23-.77,.39-1.23l.65-1.76h.6l.23,3.64h-.47l-.09-1.6h0Z"/>
      <path class="cls-1" d="M34.45,18.41l-.69,.63h-.39l.51-.63h.57Zm.09,2.76h-1.42v1.31h1.59v.39h-2.07v-3.64h1.99v.39h-1.51v1.15h1.42v.39Z"/>
      <path class="cls-1" d="M37.33,22.88l-.47-.81c-.19-.31-.31-.51-.42-.72h-.01c-.1,.21-.21,.41-.39,.72l-.44,.8h-.55l1.12-1.84-1.08-1.8h.55l.49,.85c.13,.24,.24,.42,.34,.61h.01c.11-.22,.19-.39,.33-.61l.49-.85h.55l-1.11,1.77,1.14,1.87h-.54Z"/>
      <rect class="cls-1" x="38.42" y="19.24" width=".48" height="3.64"/>
      <path class="cls-1" d="M42.28,22.77c-.17,.09-.52,.17-.97,.17-1.03,0-1.81-.65-1.81-1.85s.78-1.91,1.91-1.91c.45,0,.75,.1,.87,.16l-.12,.39c-.17-.09-.43-.15-.73-.15-.86,0-1.43,.55-1.43,1.5,0,.89,.51,1.46,1.4,1.46,.29,0,.59-.06,.78-.15l.09,.38h0Z"/>
      <path class="cls-1" d="M43.05,21.08c0,.78,.43,1.48,1.17,1.48s1.17-.69,1.17-1.51c0-.73-.38-1.49-1.17-1.49s-1.18,.73-1.18,1.52m2.85-.05c0,1.25-.77,1.92-1.7,1.92s-1.65-.75-1.65-1.85,.72-1.91,1.7-1.91,1.65,.76,1.65,1.85"/>
      <path class="cls-1" d="M4.9,16.61H0v-.53H.15c.27,0,.48,0,.64-.02,.14-.01,.25-.05,.32-.1,.07-.05,.11-.13,.13-.25,.03-.15,.05-.36,.05-.63V1.89c0-.27-.01-.49-.05-.63-.03-.12-.07-.21-.13-.25-.07-.05-.18-.09-.32-.1-.16-.01-.38-.03-.64-.03h-.15V.35H4.9V.87h-.15c-.26,0-.48,0-.64,.03-.14,.01-.25,.05-.32,.1-.07,.05-.11,.13-.13,.25-.03,.15-.05,.36-.05,.63V15.07c0,.27,.01,.49,.05,.63,.03,.12,.07,.21,.13,.25,.07,.05,.18,.09,.32,.1,.16,.01,.37,.02,.64,.02h.15v.53Z"/>
      <path class="cls-1" d="M10.03,7.4h2.13c.48,0,.94-.05,1.37-.15,.42-.1,.79-.26,1.11-.49,.31-.22,.56-.51,.74-.87,.18-.35,.27-.8,.27-1.33s-.11-.99-.33-1.35c-.22-.37-.5-.66-.84-.87-.35-.22-.75-.37-1.21-.47-.46-.09-.94-.14-1.42-.14-.13,0-.29,0-.48-.01-.18,0-.37,0-.55,.01-.18,.01-.35,.05-.51,.09-.12,.03-.21,.09-.29,.15V7.39h0Zm-.03,7.39c.07,.11,.15,.2,.27,.26,.14,.07,.3,.11,.47,.14,.18,.02,.37,.03,.55,.03h.5c.53,0,1.06-.05,1.59-.14,.52-.09,.99-.26,1.4-.5,.41-.24,.73-.56,.99-.95,.25-.39,.37-.9,.37-1.51,0-.71-.15-1.27-.46-1.68-.31-.42-.71-.75-1.18-.97-.48-.23-1.03-.38-1.64-.46-.61-.08-1.22-.12-1.8-.12h-1.07v5.91h0Zm2.61,1.83H6.41v-.53h.15c.25,0,.46,0,.61-.02,.14-.01,.25-.05,.32-.1,.07-.05,.11-.14,.15-.26,.04-.15,.05-.35,.05-.63V1.89c0-.27-.02-.48-.05-.63-.03-.12-.08-.21-.15-.26-.08-.05-.19-.09-.33-.11-.16-.01-.37-.03-.61-.03h-.15V.34h5.73c.7,0,1.41,.06,2.09,.18,.69,.12,1.32,.34,1.87,.65,.55,.32,1,.76,1.35,1.31s.52,1.27,.52,2.11c0,1.07-.29,1.91-.87,2.47-.46,.44-1.07,.78-1.82,1.02,.32,.09,.63,.2,.93,.34,.48,.22,.91,.5,1.26,.84,.36,.34,.65,.75,.87,1.21,.21,.47,.32,1,.32,1.58,0,.86-.18,1.59-.53,2.17-.35,.57-.82,1.05-1.39,1.41-.57,.35-1.22,.61-1.93,.76s-1.44,.23-2.16,.23"/>
      <path class="cls-1" d="M30.83,16.61h-11.09v-.53h.15c.59,0,.77-.1,.82-.15,.05-.06,.15-.25,.15-.85V1.89c0-.61-.09-.79-.15-.85-.05-.05-.21-.15-.82-.15h-.15V.35h10.88l.03,2.72h-.61v-.13c-.09-.54-.25-.87-.49-.98-.27-.13-.68-.19-1.21-.19h-4.8c-.27,0-.34,.03-.35,.03,0,0-.02,.08-.02,.36V7.43h4.67c.25,0,.46-.01,.65-.03,.17-.02,.3-.07,.4-.13,.09-.06,.17-.15,.22-.29,.06-.15,.1-.35,.13-.6v-.13h.6v3.85h-.59v-.13c-.05-.27-.09-.48-.15-.63-.05-.13-.13-.23-.22-.3-.1-.07-.23-.12-.39-.14-.17-.02-.39-.03-.66-.03h-4.67v6.01c0,.14,.06,.19,.07,.21,.07,.05,.15,.09,.23,.1,.11,.01,.23,.02,.35,.01,.14,0,.25-.01,.35-.01h3.92c.37,0,.7-.02,.97-.05,.25-.03,.49-.11,.69-.23,.21-.11,.39-.27,.55-.47,.17-.2,.33-.48,.48-.83l.04-.09h.66l-.65,3.1v-.03Z"/>
      <path class="cls-1" d="M35.49,7.73h.99c.56,0,1.11-.05,1.65-.15,.53-.1,1.01-.27,1.44-.53,.42-.25,.76-.58,1.01-1,.25-.41,.38-.95,.38-1.57,0-.55-.11-1.01-.31-1.37-.21-.35-.49-.63-.84-.83-.35-.2-.77-.35-1.22-.42-.47-.07-.95-.11-1.43-.11h-.47c-.15,0-.31,0-.49,.02-.16,.01-.31,.05-.44,.11-.11,.05-.21,.11-.28,.18V7.73h0Zm9.97,8.89h-2.9l-.04-.09c-.37-.83-.76-1.58-1.13-2.24-.37-.66-.79-1.29-1.23-1.86-.44-.57-.92-1.13-1.44-1.66-.51-.52-1.09-1.07-1.73-1.63l-1.51,.02v5.92c0,.26,.01,.46,.05,.61,.03,.13,.07,.22,.13,.28,.05,.05,.15,.09,.27,.1,.15,.01,.35,.02,.61,.02h.15v.53h-4.61v-.53h.15c.23,0,.41-.01,.56-.03,.12-.02,.21-.05,.26-.11,.05-.06,.09-.15,.11-.26,.02-.14,.03-.35,.03-.61V1.89c0-.24-.01-.44-.03-.59-.02-.13-.06-.21-.11-.27-.06-.05-.15-.09-.26-.11-.14-.02-.33-.03-.56-.03h-.15V.35h5.82c.7,0,1.39,.08,2.04,.23,.65,.15,1.24,.4,1.75,.74,.51,.34,.92,.79,1.22,1.35,.31,.55,.46,1.25,.46,2.05,0,.62-.12,1.17-.35,1.63s-.55,.87-.94,1.18c-.39,.31-.85,.57-1.35,.77-.4,.15-.82,.27-1.26,.35,.35,.29,.65,.55,.88,.77,.29,.27,.54,.53,.76,.77,.21,.25,.43,.5,.63,.76s.45,.56,.73,.91c.32,.4,.63,.85,.91,1.35,.29,.49,.55,.96,.79,1.39,.24,.43,.47,.79,.67,1.09,.17,.25,.34,.39,.47,.39h.15v.53h0Z"/>
      <path class="cls-1" d="M52.33,1.44c-.97,0-1.78,.21-2.43,.64-.66,.43-1.2,.98-1.62,1.65-.42,.67-.72,1.44-.91,2.27-.19,.83-.28,1.67-.28,2.49s.09,1.66,.28,2.51c.19,.84,.49,1.6,.91,2.27,.41,.66,.96,1.21,1.61,1.63,.65,.41,1.47,.63,2.44,.63s1.77-.21,2.43-.63c.67-.42,1.21-.97,1.63-1.64s.72-1.44,.91-2.27c.19-.83,.28-1.67,.28-2.49s-.1-1.63-.29-2.48c-.19-.84-.5-1.61-.92-2.28-.41-.67-.96-1.23-1.62-1.65-.65-.42-1.47-.64-2.41-.64m0,15.45c-1.23,0-2.34-.23-3.29-.67-.95-.44-1.76-1.05-2.41-1.81-.65-.76-1.15-1.66-1.48-2.68-.33-1.01-.49-2.11-.49-3.25,0-1.41,.22-2.66,.65-3.71s1.02-1.95,1.74-2.65c.73-.71,1.55-1.25,2.47-1.6,.89-.35,1.82-.52,2.75-.52h.07c.95,0,1.89,.19,2.81,.54,.92,.35,1.75,.89,2.47,1.59,.73,.71,1.31,1.6,1.75,2.66s.65,2.31,.65,3.7c0,1.15-.17,2.23-.51,3.24-.33,1.01-.83,1.91-1.49,2.68s-1.47,1.38-2.41,1.82c-.95,.44-2.05,.67-3.27,.67"/>
    </g>
  </g>
</svg>