<?xml version="1.0" encoding="UTF-8"?>
<svg id="Capa_2" data-name="Capa 2" xmlns="http://www.w3.org/2000/svg" viewBox="0 0 30 30">
  <defs>
    <style>
      .cls-1 {
        fill: #fff;
      }

      .cls-2 {
        fill: #e00034;
      }
    </style>
  </defs>
  <g id="Background">
    <g>
      <rect class="cls-2" x="0" y="0" width="30" height="30" rx="1.7" ry="1.7" transform="translate(0 30) rotate(-90)"/>
      <g>
        <path class="cls-1" d="M3.28,18.81H.99v-.25h.07c.12,0,.22,0,.3,0,.07,0,.12-.02,.15-.05,.03-.02,.05-.06,.06-.12,.01-.07,.02-.17,.02-.3v-6.16c0-.13,0-.23-.02-.3-.01-.06-.03-.1-.06-.12-.03-.02-.08-.04-.15-.05-.07,0-.18-.01-.3-.01h-.07v-.25H3.28v.25h-.07c-.12,0-.22,0-.3,.01-.07,0-.12,.02-.15,.05-.03,.02-.05,.06-.06,.12-.02,.07-.02,.17-.02,.3v6.16c0,.13,0,.23,.02,.3,.01,.06,.03,.1,.06,.12,.03,.02,.08,.04,.15,.05,.07,0,.17,0,.3,0h.07v.25Z"/>
        <path class="cls-1" d="M5.67,14.51h1c.22,0,.44-.02,.64-.07,.2-.05,.37-.12,.52-.23,.15-.1,.26-.24,.35-.4,.08-.17,.12-.37,.12-.62s-.05-.46-.15-.63c-.1-.17-.23-.31-.39-.41-.16-.1-.35-.17-.56-.22-.21-.04-.44-.07-.66-.07-.06,0-.13,0-.22,0-.08,0-.17,0-.26,0-.08,0-.17,.02-.24,.04-.06,.02-.1,.04-.13,.07v2.53h0Zm-.01,3.45c.03,.05,.07,.09,.13,.12,.07,.03,.14,.05,.22,.07,.08,0,.17,.02,.26,.02h.23c.25,0,.5-.02,.74-.07,.24-.04,.46-.12,.65-.23,.19-.11,.34-.26,.46-.45,.12-.18,.17-.42,.17-.71,0-.33-.07-.59-.21-.78-.14-.2-.33-.35-.55-.45-.22-.11-.48-.18-.77-.21-.29-.04-.57-.06-.84-.06h-.5v2.76h0Zm1.22,.85H3.99v-.25h.07c.12,0,.21,0,.29,0,.07,0,.12-.02,.15-.05,.03-.02,.05-.07,.07-.12,.02-.07,.02-.17,.02-.29v-6.16c0-.12,0-.22-.02-.29-.02-.06-.04-.1-.07-.12-.04-.02-.09-.04-.16-.05-.07,0-.17-.01-.29-.01h-.07v-.25h2.67c.33,0,.66,.03,.98,.08,.32,.06,.62,.16,.87,.31,.26,.15,.47,.35,.63,.61s.24,.59,.24,.98c0,.5-.14,.89-.41,1.15-.21,.21-.5,.36-.85,.48,.15,.04,.3,.09,.44,.16,.22,.1,.42,.23,.59,.39,.17,.16,.31,.35,.4,.57,.1,.22,.15,.47,.15,.74,0,.4-.08,.74-.25,1.01-.17,.27-.38,.49-.65,.66-.26,.17-.57,.28-.9,.35s-.67,.11-1.01,.11"/>
        <path class="cls-1" d="M15.39,18.81h-5.18v-.25h.07c.27,0,.36-.05,.38-.07,.02-.03,.07-.12,.07-.4v-6.16c0-.28-.04-.37-.07-.4-.02-.02-.1-.07-.38-.07h-.07v-.25h5.08v1.27s-.27,0-.27,0v-.06c-.04-.25-.12-.41-.23-.46-.13-.06-.32-.09-.56-.09h-2.24c-.12,0-.16,.01-.17,.02,0,0,0,.04,0,.17v2.45h2.18c.12,0,.21,0,.3-.02,.08,0,.14-.03,.19-.06,.04-.03,.08-.07,.1-.13,.03-.07,.05-.16,.06-.28v-.06h.28v1.8h-.27v-.06c-.02-.12-.04-.22-.07-.29-.02-.06-.06-.11-.1-.14-.05-.03-.11-.06-.18-.07-.08,0-.18-.02-.31-.02h-2.18v2.81c0,.07,.03,.09,.03,.1,.03,.02,.07,.04,.11,.05,.05,0,.11,0,.17,0,.07,0,.12,0,.17,0h1.83c.17,0,.33,0,.45-.02,.12-.02,.23-.05,.32-.11,.1-.05,.18-.13,.26-.22,.08-.09,.15-.22,.22-.39l.02-.04h.31l-.31,1.45h0Z"/>
        <path class="cls-1" d="M17.57,14.67h.46c.26,0,.52-.02,.77-.07,.25-.05,.47-.13,.67-.25,.2-.12,.35-.27,.47-.47,.12-.19,.18-.44,.18-.73,0-.26-.05-.47-.15-.64-.1-.17-.23-.3-.39-.39-.17-.09-.36-.16-.57-.2-.22-.03-.44-.05-.67-.05h-.22c-.07,0-.15,0-.23,0-.07,0-.14,.02-.21,.05-.05,.02-.1,.05-.13,.08v2.65h0Zm4.66,4.15h-1.35l-.02-.04c-.17-.39-.35-.74-.53-1.05-.17-.31-.37-.6-.57-.87-.21-.27-.43-.53-.67-.78-.24-.24-.51-.5-.81-.76h-.7v2.77c0,.12,0,.21,.02,.28,.01,.06,.03,.1,.06,.13,.02,.02,.07,.04,.12,.05,.07,0,.17,0,.28,0h.07v.25h-2.15v-.25h.07c.11,0,.19,0,.26-.02,.06,0,.1-.02,.12-.05,.02-.03,.04-.07,.05-.12,0-.07,.02-.16,.02-.28v-6.16c0-.11,0-.21-.02-.28,0-.06-.03-.1-.05-.13-.03-.02-.07-.04-.12-.05-.07,0-.16-.02-.26-.02h-.07v-.25h2.72c.33,0,.65,.04,.95,.11,.31,.07,.58,.19,.82,.35,.24,.16,.43,.37,.57,.63,.14,.26,.21,.58,.21,.96,0,.29-.06,.54-.16,.76s-.26,.4-.44,.55c-.18,.15-.4,.27-.63,.36-.19,.07-.38,.13-.59,.17,.17,.14,.3,.26,.41,.36,.13,.12,.25,.25,.35,.36,.1,.12,.2,.23,.3,.35s.21,.26,.34,.42c.15,.19,.29,.4,.43,.63,.13,.23,.26,.45,.37,.65,.11,.2,.22,.37,.31,.51,.08,.12,.16,.18,.22,.18h.07v.25h0Z"/>
        <path class="cls-1" d="M25.43,11.73c-.45,0-.83,.1-1.14,.3-.31,.2-.56,.46-.76,.77-.2,.31-.34,.67-.42,1.06-.09,.39-.13,.78-.13,1.16s.04,.78,.13,1.17c.09,.39,.23,.75,.42,1.06,.19,.31,.45,.57,.75,.76,.31,.19,.69,.29,1.14,.29s.83-.1,1.13-.29c.31-.2,.57-.45,.76-.77s.34-.67,.42-1.06c.09-.39,.13-.78,.13-1.16s-.05-.76-.14-1.16c-.09-.39-.23-.75-.43-1.06-.19-.31-.45-.57-.76-.77-.31-.2-.68-.3-1.13-.3m0,7.22c-.58,0-1.09-.11-1.54-.31-.44-.21-.82-.49-1.13-.84s-.54-.78-.69-1.25c-.15-.47-.23-.99-.23-1.52,0-.66,.1-1.24,.31-1.73s.48-.91,.81-1.24c.34-.33,.73-.59,1.16-.75,.42-.16,.85-.24,1.28-.24h.03c.44,0,.88,.09,1.31,.25,.43,.17,.82,.41,1.16,.74,.34,.33,.61,.75,.82,1.24s.31,1.08,.31,1.73c0,.54-.08,1.04-.24,1.51-.16,.47-.39,.89-.69,1.25s-.68,.64-1.13,.85c-.44,.21-.96,.31-1.53,.31"/>
      </g>
    </g>
  </g>
</svg>